<svg width="102" height="15" viewBox="0 0 102 15" fill="none" xmlns="http://www.w3.org/2000/svg">
<path d="M12.72 0.16V14.73H9.32V8.57H3.4V14.73H0V0.16H3.4V6.25H9.32V0.16H12.72Z" fill="#34251F"/>
<path d="M25.6269 12.03V14.73H16.8469V0.16H20.2269V12.03H25.6269Z" fill="#34251F"/>
<path d="M27.8747 13.16C27.8747 12.92 27.918 12.6967 28.0047 12.49C28.098 12.2833 28.2214 12.1033 28.3747 11.95C28.5347 11.7967 28.7214 11.6767 28.9347 11.59C29.148 11.4967 29.3814 11.45 29.6347 11.45C29.8814 11.45 30.1114 11.4967 30.3247 11.59C30.538 11.6767 30.7247 11.7967 30.8847 11.95C31.0447 12.1033 31.168 12.2833 31.2547 12.49C31.348 12.6967 31.3947 12.92 31.3947 13.16C31.3947 13.4 31.348 13.6267 31.2547 13.84C31.168 14.0467 31.0447 14.2267 30.8847 14.38C30.7247 14.5333 30.538 14.6533 30.3247 14.74C30.1114 14.8267 29.8814 14.87 29.6347 14.87C29.3814 14.87 29.148 14.8267 28.9347 14.74C28.7214 14.6533 28.5347 14.5333 28.3747 14.38C28.2214 14.2267 28.098 14.0467 28.0047 13.84C27.918 13.6267 27.8747 13.4 27.8747 13.16Z" fill="#34251F"/>
<path d="M42.7898 3.12C42.6898 3.28 42.5832 3.4 42.4698 3.48C42.3632 3.56 42.2232 3.6 42.0498 3.6C41.8965 3.6 41.7298 3.55333 41.5498 3.46C41.3765 3.36 41.1765 3.25 40.9498 3.13C40.7298 3.01 40.4765 2.90333 40.1898 2.81C39.9032 2.71 39.5765 2.66 39.2098 2.66C38.5765 2.66 38.1032 2.79667 37.7898 3.07C37.4832 3.33667 37.3298 3.7 37.3298 4.16C37.3298 4.45333 37.4232 4.69667 37.6098 4.89C37.7965 5.08333 38.0398 5.25 38.3398 5.39C38.6465 5.53 38.9932 5.66 39.3798 5.78C39.7732 5.89333 40.1732 6.02333 40.5798 6.17C40.9865 6.31 41.3832 6.47667 41.7698 6.67C42.1632 6.86333 42.5098 7.11 42.8098 7.41C43.1165 7.71 43.3632 8.07667 43.5498 8.51C43.7365 8.93667 43.8298 9.45333 43.8298 10.06C43.8298 10.7333 43.7132 11.3633 43.4798 11.95C43.2465 12.5367 42.9065 13.05 42.4598 13.49C42.0198 13.9233 41.4732 14.2667 40.8198 14.52C40.1732 14.7667 39.4365 14.89 38.6098 14.89C38.1565 14.89 37.6932 14.8433 37.2198 14.75C36.7532 14.6567 36.2998 14.5267 35.8598 14.36C35.4198 14.1867 35.0065 13.9833 34.6198 13.75C34.2332 13.5167 33.8965 13.2567 33.6098 12.97L34.6098 11.39C34.6898 11.2767 34.7932 11.1833 34.9198 11.11C35.0532 11.03 35.1965 10.99 35.3498 10.99C35.5498 10.99 35.7498 11.0533 35.9498 11.18C36.1565 11.3067 36.3865 11.4467 36.6398 11.6C36.8998 11.7533 37.1965 11.8933 37.5298 12.02C37.8632 12.1467 38.2565 12.21 38.7098 12.21C39.3232 12.21 39.7998 12.0767 40.1398 11.81C40.4798 11.5367 40.6498 11.1067 40.6498 10.52C40.6498 10.18 40.5565 9.90333 40.3698 9.69C40.1832 9.47667 39.9365 9.3 39.6298 9.16C39.3298 9.02 38.9865 8.89667 38.5998 8.79C38.2132 8.68333 37.8165 8.56667 37.4098 8.44C37.0032 8.30667 36.6065 8.14667 36.2198 7.96C35.8332 7.76667 35.4865 7.51667 35.1798 7.21C34.8798 6.89667 34.6365 6.51 34.4498 6.05C34.2632 5.58333 34.1698 5.01 34.1698 4.33C34.1698 3.78333 34.2798 3.25 34.4998 2.73C34.7198 2.21 35.0432 1.74667 35.4698 1.34C35.8965 0.933333 36.4198 0.609999 37.0398 0.369999C37.6598 0.123333 38.3698 0 39.1698 0C39.6165 0 40.0498 0.0366668 40.4698 0.11C40.8965 0.176667 41.2998 0.28 41.6798 0.419999C42.0598 0.553333 42.4132 0.716667 42.7398 0.91C43.0732 1.09667 43.3698 1.31 43.6298 1.55L42.7898 3.12Z" fill="#34251F"/>
<path d="M57.5841 2.84H53.4841V14.73H50.1041V2.84H46.0041V0.16H57.5841V2.84Z" fill="#34251F"/>
<path d="M74.5695 7.44C74.5695 8.49333 74.3862 9.47333 74.0195 10.38C73.6595 11.2867 73.1495 12.0767 72.4895 12.75C71.8295 13.4167 71.0329 13.94 70.0995 14.32C69.1729 14.7 68.1429 14.89 67.0095 14.89C65.8762 14.89 64.8429 14.7 63.9095 14.32C62.9762 13.94 62.1762 13.4167 61.5095 12.75C60.8495 12.0767 60.3362 11.2867 59.9695 10.38C59.6095 9.47333 59.4295 8.49333 59.4295 7.44C59.4295 6.38667 59.6095 5.40667 59.9695 4.5C60.3362 3.59333 60.8495 2.80667 61.5095 2.14C62.1762 1.47333 62.9762 0.95 63.9095 0.57C64.8429 0.19 65.8762 0 67.0095 0C68.1429 0 69.1729 0.193333 70.0995 0.58C71.0329 0.96 71.8295 1.48333 72.4895 2.15C73.1495 2.81667 73.6595 3.60333 74.0195 4.51C74.3862 5.41667 74.5695 6.39333 74.5695 7.44ZM71.1095 7.44C71.1095 6.72 71.0162 6.07333 70.8295 5.5C70.6429 4.92 70.3729 4.43 70.0195 4.03C69.6729 3.63 69.2462 3.32333 68.7395 3.11C68.2329 2.89667 67.6562 2.79 67.0095 2.79C66.3562 2.79 65.7729 2.89667 65.2595 3.11C64.7529 3.32333 64.3229 3.63 63.9695 4.03C63.6229 4.43 63.3562 4.92 63.1695 5.5C62.9829 6.07333 62.8895 6.72 62.8895 7.44C62.8895 8.16667 62.9829 8.82 63.1695 9.4C63.3562 9.97333 63.6229 10.46 63.9695 10.86C64.3229 11.26 64.7529 11.5667 65.2595 11.78C65.7729 11.9867 66.3562 12.09 67.0095 12.09C67.6562 12.09 68.2329 11.9867 68.7395 11.78C69.2462 11.5667 69.6729 11.26 70.0195 10.86C70.3729 10.46 70.6429 9.97333 70.8295 9.4C71.0162 8.82 71.1095 8.16667 71.1095 7.44Z" fill="#34251F"/>
<path d="M82.5986 7.01C83.0586 7.01 83.4486 6.95333 83.7686 6.84C84.0953 6.72 84.3619 6.55667 84.5686 6.35C84.7753 6.14333 84.9253 5.90333 85.0186 5.63C85.1119 5.35 85.1586 5.05 85.1586 4.73C85.1586 4.09 84.9486 3.59 84.5286 3.23C84.1153 2.87 83.4719 2.69 82.5986 2.69H81.2386V7.01H82.5986ZM89.7786 14.73H86.7186C86.1519 14.73 85.7453 14.5167 85.4986 14.09L83.0786 9.86C82.9653 9.68 82.8386 9.55 82.6986 9.47C82.5586 9.38333 82.3586 9.34 82.0986 9.34H81.2386V14.73H77.8586V0.16H82.5986C83.6519 0.16 84.5486 0.27 85.2886 0.49C86.0353 0.703333 86.6419 1.00333 87.1086 1.39C87.5819 1.77667 87.9253 2.23333 88.1386 2.76C88.3519 3.28667 88.4586 3.86 88.4586 4.48C88.4586 4.95333 88.3953 5.4 88.2686 5.82C88.1419 6.24 87.9553 6.63 87.7086 6.99C87.4619 7.34333 87.1553 7.66 86.7886 7.94C86.4286 8.22 86.0119 8.45 85.5386 8.63C85.7586 8.74333 85.9653 8.88667 86.1586 9.06C86.3519 9.22667 86.5253 9.42667 86.6786 9.66L89.7786 14.73Z" fill="#34251F"/>
<path d="M95.7031 2.76V6.16H100.283V8.66H95.7031V12.13H101.683V14.73H92.3031V0.16H101.683V2.76H95.7031Z" fill="#34251F"/>
</svg>
